<?xml version="1.0" standalone="no"?>
<!DOCTYPE svg PUBLIC "-//W3C//DTD SVG 20010904//EN"
 "http://www.w3.org/TR/2001/REC-SVG-20010904/DTD/svg10.dtd">
<svg version="1.0" xmlns="http://www.w3.org/2000/svg"
 width="311.000000pt" height="311.000000pt" viewBox="0 0 311.000000 311.000000"
 preserveAspectRatio="xMidYMid meet">

<g transform="translate(0.000000,311.000000) scale(0.100000,-0.100000)"
fill="#000000" stroke="none">
<path d="M1090 3055 c-572 -90 -1000 -591 -1000 -1170 0 -513 342 -973 835
-1124 138 -42 211 -53 345 -53 195 0 397 52 569 147 46 25 89 45 97 43 7 -2
157 -146 332 -320 176 -175 322 -318 326 -318 8 0 286 279 286 287 0 3 -44 48
-97 100 -102 98 -450 442 -516 511 l-38 39 34 54 c127 199 187 405 187 639 0
145 -14 233 -60 370 -181 543 -737 883 -1300 795z m277 -325 c370 -39 662
-297 748 -660 25 -106 23 -280 -4 -385 -42 -160 -123 -297 -242 -410 -468
-443 -1232 -227 -1401 395 -19 71 -22 109 -22 225 1 122 4 151 28 230 63 209
202 388 386 497 80 47 233 97 329 107 42 5 78 9 81 9 3 1 46 -3 97 -8z"/>
<path d="M2821 318 l-142 -142 53 -53 c48 -49 56 -53 98 -53 118 0 263 159
242 267 -4 23 -87 123 -101 123 -5 0 -72 -64 -150 -142z"/>
</g>
</svg>
